<?xml version="1.0" standalone="no"?>
<!DOCTYPE svg PUBLIC "-//W3C//DTD SVG 20010904//EN"
 "http://www.w3.org/TR/2001/REC-SVG-20010904/DTD/svg10.dtd">
<svg version="1.0" xmlns="http://www.w3.org/2000/svg"
 width="200.000000pt" height="200.000000pt" viewBox="0 0 200.000000 200.000000"
 preserveAspectRatio="xMidYMid meet">
<metadata>
Created by potrace 1.11, written by Peter Selinger 2001-2013
</metadata>
<g transform="translate(0.000000,200.000000) scale(0.100000,-0.100000)"
fill="#000000" stroke="none">
<path d="M844 1637 c-58 -40 -108 -117 -125 -193 -10 -44 -9 -60 4 -100 l16
-48 -38 -45 c-82 -99 -171 -250 -210 -354 -54 -147 0 -320 119 -382 39 -20 38
-31 -4 -39 -95 -18 -146 -132 -96 -214 11 -17 24 -32 30 -32 16 0 12 -146 -5
-187 -16 -38 -13 -55 7 -35 15 15 32 16 23 2 -4 -6 20 -10 64 -10 l71 0 0 54
c0 30 5 67 10 82 10 25 12 26 27 11 9 -9 18 -41 22 -79 l6 -63 318 -3 317 -2
0 37 0 38 18 -35 17 -35 78 -3 c44 -2 77 1 75 5 -41 81 -60 128 -71 173 -14
53 -14 56 9 83 43 51 49 122 15 184 -16 31 -73 72 -116 84 -35 10 -36 11 -20
32 48 66 60 109 59 217 0 89 -5 115 -28 175 -67 173 -222 363 -344 421 -25 12
-32 20 -26 32 4 9 9 42 11 73 13 155 -112 239 -233 156z m22 -42 c-21 -16 -32
-13 -21 4 3 6 14 11 23 11 15 -1 15 -2 -2 -15z m-36 -20 c0 -3 -16 -23 -36
-45 -34 -37 -36 -43 -24 -65 13 -25 7 -75 -10 -75 -14 0 -13 96 1 123 21 41
69 84 69 62z m-20 -75 c0 -5 -7 -10 -16 -10 -8 0 -12 5 -9 10 3 6 10 10 16 10
5 0 9 -4 9 -10z m231 -330 c22 0 69 -48 69 -70 0 -34 -36 -50 -151 -70 -63
-11 -144 -20 -181 -20 -60 0 -69 3 -87 26 -40 50 -19 84 66 110 50 16 213 34
248 28 11 -2 27 -4 36 -4z m-425 -98 c-50 -94 -76 -176 -83 -252 -8 -92 9
-142 66 -204 35 -36 47 -56 42 -69 -6 -16 -10 -15 -44 10 -110 83 -135 216
-68 373 30 70 108 210 117 210 2 0 -11 -30 -30 -68z m368 -301 c8 -60 2 -78
-30 -84 -23 -4 -24 -3 -24 59 0 60 5 71 36 73 6 1 14 -21 18 -48z m-74 -28
l-1 -68 -19 24 c-13 15 -20 38 -20 67 0 37 3 44 20 44 18 0 20 -7 20 -67z
m-220 -213 l21 -29 -29 10 c-23 8 -29 15 -25 30 7 25 8 24 33 -11z m-173 -212
c-2 -13 -4 -5 -4 17 -1 22 1 32 4 23 2 -10 2 -28 0 -40z m476 5 c-23 -2 -64
-2 -90 0 -26 2 -7 3 42 3 50 0 71 -1 48 -3z m-255 -101 c4 -25 -6 -28 -33 -9
-10 8 -15 19 -11 26 12 19 41 8 44 -17z m-169 -176 c-9 -8 -10 -5 -5 14 3 14
7 34 7 45 1 11 4 5 6 -14 3 -19 -1 -39 -8 -45z"/>
</g>
</svg>
